<svg width="3004" height="726" viewBox="0 0 3004 726" fill="none" xmlns="http://www.w3.org/2000/svg">
<path d="M2837.36 126.186C2888.21 126.186 2931.32 142.214 2966.69 174.271C2974.98 181.456 2980.51 187.26 2983.27 191.681C2984.38 193.892 2986.31 196.656 2989.08 199.972C2988.52 201.077 2980.79 205.775 2965.86 214.066C2952.05 222.909 2937.12 232.305 2921.09 242.254C2916.12 236.727 2911.15 232.029 2906.17 228.16C2887.93 214.342 2865.55 207.433 2839.02 207.433C2838.46 207.433 2837.64 207.433 2836.53 207.433C2807.79 207.433 2784.58 214.342 2766.89 228.16C2757.49 236.45 2752.8 245.294 2752.8 254.69C2752.8 260.769 2755.28 265.467 2760.26 268.784C2765.78 273.205 2776.01 278.18 2790.93 283.707C2812.49 290.339 2845.37 297.524 2889.59 305.262C2903.41 308.578 2915.57 312.447 2926.07 316.869C2935.46 320.738 2945.14 325.989 2955.09 332.621C2959.51 335.937 2965.59 341.464 2973.32 349.202C2993.77 371.31 3004 396.182 3004 423.818C3004 423.818 3004 424.094 3004 424.647C3004 452.835 2993.5 479.364 2972.5 504.236C2963.65 513.079 2957.3 518.607 2953.43 520.817C2942.37 529.108 2933.25 534.635 2926.07 537.399C2897.88 550.111 2868.03 556.467 2836.53 556.467C2835.42 556.467 2834.32 556.467 2833.21 556.467C2791.76 556.467 2753.9 545.689 2719.63 524.134C2711.89 519.159 2703.88 512.527 2695.59 504.236C2687.85 497.051 2682.33 491.248 2679.01 486.826C2673.48 479.641 2668.51 472.179 2664.09 464.441C2679.56 455.598 2702.78 442.333 2733.73 424.647C2734.28 425.752 2735.38 427.686 2737.04 430.45C2740.36 435.424 2745.33 440.951 2751.97 447.031C2764.13 458.638 2779.6 467.205 2798.39 472.732C2810.55 475.495 2822.71 476.877 2834.87 476.877C2859.19 476.877 2880.75 471.35 2899.54 460.296C2903.41 458.085 2907.83 454.769 2912.8 450.347C2919.99 441.504 2923.58 432.661 2923.58 423.818C2923.58 408.894 2911.97 397.011 2888.76 388.168C2881.02 385.404 2866.93 382.365 2846.48 379.048C2801.71 370.758 2768.55 361.638 2746.99 351.689C2737.6 348.373 2728.2 343.675 2718.8 337.595C2697.8 323.778 2683.98 306.368 2677.35 285.365C2674.03 275.969 2672.38 266.02 2672.38 255.519C2672.38 254.966 2672.38 254.137 2672.38 253.031C2672.38 227.054 2682.05 202.459 2701.39 179.245C2709.68 170.402 2715.76 164.875 2719.63 162.664C2729.03 155.479 2737.87 149.952 2746.16 146.083C2773.8 132.818 2804.2 126.186 2837.36 126.186Z" fill="white"/>
<path d="M2464.42 546.518C2463.86 546.518 2462.76 546.518 2461.1 546.518C2389.25 546.518 2337.85 519.712 2306.89 466.1C2296.39 444.544 2291.14 419.396 2291.14 390.655C2291.14 337.596 2291.14 257.73 2291.14 151.058C2291.14 150.505 2291.7 149.952 2292.8 149.399C2305.51 149.399 2331.21 149.399 2369.9 149.399C2369.9 149.399 2370.46 149.952 2371.56 151.058C2371.56 190.852 2371.56 270.995 2371.56 391.484C2371.56 425.752 2385.38 448.137 2413.01 458.638C2425.17 464.165 2440.37 466.929 2458.61 466.929C2460.27 466.929 2462.48 466.929 2465.24 466.929C2498.96 466.929 2523 461.402 2537.37 450.348C2555.61 439.294 2564.73 419.12 2564.73 389.826C2564.73 336.767 2564.73 257.177 2564.73 151.058C2565.28 150.505 2565.56 149.952 2565.56 149.399C2578.83 149.399 2605.08 149.399 2644.32 149.399C2644.32 149.399 2644.32 149.952 2644.32 151.058C2644.32 216.277 2644.32 346.992 2644.32 543.202C2644.32 543.202 2644.32 543.479 2644.32 544.031C2631.06 544.031 2604.8 544.031 2565.56 544.031C2565.56 544.031 2565.28 543.755 2564.73 543.202C2564.73 538.781 2564.73 529.937 2564.73 516.672C2550.36 527.174 2531.85 535.741 2509.18 542.373C2497.03 545.137 2482.1 546.518 2464.42 546.518Z" fill="white"/>
<path d="M2239.05 149.399C2239.05 215.724 2239.05 348.097 2239.05 546.518C2239.05 546.518 2238.77 546.518 2238.22 546.518C2224.95 546.518 2198.42 546.518 2158.63 546.518C2158.63 480.194 2158.63 347.821 2158.63 149.399C2171.89 149.399 2198.7 149.399 2239.05 149.399ZM2197.59 0C2198.14 0 2199.25 0 2200.91 0C2212.52 0 2223.85 4.698 2234.9 14.094C2245.4 25.1481 2250.65 37.3076 2250.65 50.5726C2250.65 51.1253 2250.65 51.9543 2250.65 53.0597C2250.65 65.772 2246.23 77.6551 2237.39 88.7092C2226.33 99.2107 2213.9 104.461 2200.08 104.461C2199.53 104.461 2198.7 104.461 2197.59 104.461C2184.88 104.461 2173.27 99.487 2162.77 89.5383C2157.24 83.4585 2153.38 78.2078 2151.16 73.7862C2148.4 66.601 2147.02 59.9686 2147.02 53.8888C2147.02 53.3361 2147.02 52.2307 2147.02 50.5726C2147.02 37.8603 2151.99 25.9772 2161.94 14.9231C2163.05 13.8176 2164.98 12.1595 2167.75 9.9487C2177.69 3.31623 2187.64 0 2197.59 0Z" fill="white"/>
<path d="M1807.24 341.741C1807.24 344.504 1807.24 350.031 1807.24 358.322C1807.24 366.612 1809.17 377.943 1813.04 392.313C1816.91 401.709 1820.5 410 1823.82 417.185C1828.24 423.265 1834.32 430.726 1842.06 439.57C1850.9 447.86 1856.7 452.835 1859.47 454.493C1866.1 458.914 1871.9 462.783 1876.88 466.099C1894.56 473.285 1910.32 476.877 1924.13 476.877C1925.24 476.877 1926.9 476.877 1929.11 476.877C1953.98 476.877 1977.19 468.587 1998.75 452.005C2003.17 449.242 2008.7 444.268 2015.33 437.082C2028.6 421.607 2037.72 405.302 2042.69 388.168C2046.56 376.008 2048.49 363.296 2048.49 350.031C2048.49 318.527 2038.27 290.339 2017.82 265.467C2008.97 256.071 2003.45 250.821 2001.24 249.715C1979.13 232.581 1954.81 224.014 1928.28 224.014C1927.17 224.014 1926.07 224.014 1924.96 224.014C1910.04 224.014 1893.74 227.607 1876.05 234.792C1867.76 239.214 1858.36 245.846 1847.86 254.69C1837.91 265.191 1831.83 272.376 1829.62 276.245C1825.2 282.325 1821.88 288.128 1819.67 293.655C1817.46 298.63 1814.7 305.538 1811.38 314.382C1808.62 327.094 1807.24 336.214 1807.24 341.741ZM1924.13 143.596C1964.48 143.596 2000.41 153.268 2031.91 172.613C2040.76 178.14 2050.98 186.43 2062.59 197.485C2073.09 207.433 2079.72 214.342 2082.48 218.211C2089.12 227.054 2095.2 235.621 2100.72 243.912C2118.96 277.074 2128.08 312.724 2128.08 350.86C2128.08 396.735 2113.99 438.741 2085.8 476.877C2082.48 482.404 2075.58 490.971 2065.07 502.578C2063.42 503.683 2060.93 505.618 2057.61 508.381C2018.37 540.438 1974.98 556.467 1927.45 556.467C1892.63 556.467 1861.13 546.518 1832.94 526.621C1827.96 523.304 1820.78 517.501 1811.38 509.21C1810.28 508.105 1808.9 506.447 1807.24 504.236C1807.24 541.267 1807.24 615.054 1807.24 725.595C1793.97 725.595 1767.44 725.595 1727.65 725.595C1727.65 725.042 1727.37 724.766 1726.82 724.766C1726.82 629.148 1726.82 438.188 1726.82 151.886C1727.37 151.334 1727.65 151.057 1727.65 151.057C1740.91 151.057 1767.44 151.057 1807.24 151.057C1807.24 158.242 1807.24 172.889 1807.24 194.997C1817.19 183.943 1823.54 177.863 1826.31 176.758C1834.6 170.678 1841.5 165.704 1847.03 161.835C1855.88 157.413 1864.44 154.097 1872.73 151.886C1879.37 149.675 1890.42 147.188 1905.9 144.425C1910.87 144.425 1916.95 144.148 1924.13 143.596Z" fill="white"/>
<path d="M1479.89 142.767C1525.77 142.767 1565.01 160.453 1597.62 195.826C1597.62 185.878 1597.62 170.678 1597.62 150.228C1598.17 150.228 1598.72 149.952 1599.28 149.399C1612.54 149.399 1638.52 149.399 1677.21 149.399C1677.76 149.399 1678.31 149.675 1678.87 150.228C1678.87 216 1678.87 347.82 1678.87 545.689C1678.31 545.689 1677.76 545.965 1677.21 546.518C1664.5 546.518 1638.52 546.518 1599.28 546.518C1599.28 546.518 1598.72 546.242 1597.62 545.689C1597.62 539.057 1597.62 525.792 1597.62 505.894C1566.67 539.609 1526.87 556.467 1478.23 556.467C1417.99 556.467 1366.59 532.148 1324.03 483.51C1292.52 443.715 1276.77 399.222 1276.77 350.031C1276.77 288.681 1300.26 235.898 1347.24 191.681C1385.93 159.071 1430.15 142.767 1479.89 142.767ZM1357.19 350.031C1357.19 393.142 1375.98 428.792 1413.57 456.98C1434.02 469.692 1453.91 476.048 1473.26 476.048C1474.92 476.048 1477.68 476.048 1481.55 476.048C1508.08 476.048 1534.06 465.27 1559.48 443.715C1584.91 417.185 1597.62 385.957 1597.62 350.031C1597.62 305.815 1578.83 269.889 1541.24 242.254C1520.79 230.094 1500.62 224.014 1480.72 224.014C1479.06 224.014 1476.85 224.014 1474.09 224.014C1440.93 224.014 1410.8 239.214 1383.72 269.613C1366.03 295.037 1357.19 321.843 1357.19 350.031Z" fill="white"/>
<path d="M922.897 149.399C982.59 149.399 1101.7 149.399 1280.22 149.399C1280.22 149.399 1280.5 149.952 1281.05 151.058C1244.02 203.565 1169.68 308.855 1058.03 466.929C1093.96 466.929 1166.09 466.929 1274.42 466.929C1274.97 466.929 1275.52 467.205 1276.08 467.758C1276.08 480.47 1276.08 506.447 1276.08 545.689C1276.08 545.689 1275.52 545.966 1274.42 546.518C1212.52 546.518 1088.71 546.518 903 546.518C940.584 493.459 1015.2 387.616 1126.85 228.989C1093.13 228.989 1025.15 228.989 922.897 228.989C922.897 228.989 922.897 228.713 922.897 228.16C922.897 215.448 922.897 189.747 922.897 151.058C922.897 150.505 922.897 149.952 922.897 149.399Z" fill="white"/>
<path fill-rule="evenodd" clip-rule="evenodd" d="M618.337 113H621.073L722 395L666.895 548.97V548.681C665.994 547.78 665.093 547.33 664.193 547.33H311.614C448.046 354.185 550.287 209.408 618.337 113ZM100.28 655.193L0 375L84.2241 139.67H463.737C283.078 396.321 161.926 568.162 100.28 655.193Z" fill="#0C9121"/>
</svg>
